<?xml version="1.0" encoding="UTF-8" standalone="no"?>
<svg
   xmlns:dc="http://purl.org/dc/elements/1.1/"
   xmlns:cc="http://creativecommons.org/ns#"
   xmlns:rdf="http://www.w3.org/1999/02/22-rdf-syntax-ns#"
   xmlns:svg="http://www.w3.org/2000/svg"
   xmlns="http://www.w3.org/2000/svg"
   xmlns:sodipodi="http://sodipodi.sourceforge.net/DTD/sodipodi-0.dtd"
   xmlns:inkscape="http://www.inkscape.org/namespaces/inkscape"
   inkscape:version="1.0 (4035a4fb49, 2020-05-01)"
   sodipodi:docname="globe.svg"
   viewBox="0 0 960 719.99988"
   height="719.99988"
   width="960"
   xml:space="preserve"
   id="svg10"
   version="1.1"><metadata
     id="metadata16"><rdf:RDF><cc:Work
         rdf:about=""><dc:format>image/svg+xml</dc:format><dc:type
           rdf:resource="http://purl.org/dc/dcmitype/StillImage" /><dc:title></dc:title></cc:Work></rdf:RDF></metadata><defs
     id="defs14"><clipPath
       id="clipPath26"
       clipPathUnits="userSpaceOnUse"><path
         id="path24"
         clip-rule="evenodd"
         d="M 0,1.2207e-4 H 720 V 540.00012 H 0 Z" /></clipPath><clipPath
       id="clipPath36"
       clipPathUnits="userSpaceOnUse"><path
         id="path34"
         clip-rule="evenodd"
         d="M -7.629e-6,1.2207e-4 H 719.99999 V 540.00012 H -7.629e-6 Z" /></clipPath><clipPath
       id="clipPath46"
       clipPathUnits="userSpaceOnUse"><path
         id="path44"
         clip-rule="evenodd"
         d="M -7.629e-6,1.2207e-4 H 719.99999 V 540.00012 H -7.629e-6 Z" /></clipPath><clipPath
       id="clipPath58"
       clipPathUnits="userSpaceOnUse"><path
         id="path56"
         clip-rule="evenodd"
         d="M -3.0518e-5,1.8311e-4 H 719.99997 V 540.00018 H -3.0518e-5 Z" /></clipPath></defs><sodipodi:namedview
     inkscape:current-layer="g18"
     inkscape:window-maximized="0"
     inkscape:window-y="0"
     inkscape:window-x="0"
     inkscape:cy="699.6227"
     inkscape:cx="480"
     inkscape:zoom="1.1777778"
     showgrid="false"
     id="namedview12"
     inkscape:window-height="889"
     inkscape:window-width="1771"
     inkscape:pageshadow="2"
     inkscape:pageopacity="0"
     guidetolerance="10"
     gridtolerance="10"
     objecttolerance="10"
     borderopacity="1"
     bordercolor="#666666"
     pagecolor="#ffffff" /><g
     transform="matrix(1.3333333,0,0,-1.3333333,0,720.00006)"
     inkscape:label="globe"
     inkscape:groupmode="layer"
     id="g18"><g
       id="g20"><g
         clip-path="url(#clipPath26)"
         id="g22"><path
           id="path28"
           style="fill:#ffffff;fill-opacity:1;fill-rule:evenodd;stroke:none"
           d="M 0,6.1035e-5 H 720 V 540.00006 H 0 Z" /></g></g><g
       id="g30"><g
         clip-path="url(#clipPath36)"
         id="g32"><path
           id="path38"
           style="fill:#0066cc;fill-opacity:1;fill-rule:evenodd;stroke:none"
           d="M 90,270 C 90,419.12 210.88,540 360,540 509.12,540 630,419.12 630,270 630,120.88 509.12,6.1035e-5 360,6.1035e-5 210.88,6.1035e-5 90,120.88 90,270 Z" /></g></g><g
       id="g40"><g
         clip-path="url(#clipPath46)"
         id="g42"><path
           id="path48"
           style="fill:none;stroke:#0066cc;stroke-width:1;stroke-linecap:butt;stroke-linejoin:miter;stroke-miterlimit:10;stroke-dasharray:none;stroke-opacity:1"
           d="M 90,270 C 90,419.12 210.88,540 360,540 509.12,540 630,419.12 630,270 630,120.88 509.12,6.1035e-5 360,6.1035e-5 210.88,6.1035e-5 90,120.88 90,270 Z" /></g></g><path
       id="path50"
       style="fill:#00cc66;fill-opacity:1;fill-rule:evenodd;stroke:none"
       d="m 354.83,539.76 35.69,-26.15 6.92,-34.58 -8.31,-26.28 -12.46,-20.74 -1.38,-29.05 -27.69,5.53 -22.15,23.52 -23.54,56.71 -37.38,6.91 -8.21,23.6 10.92,4.3 c 24.81,9.07 51.32,14.61 78.93,16.01 z" /><g
       id="g52"><g
         clip-path="url(#clipPath58)"
         id="g54"><path
           id="path60"
           style="fill:none;stroke:#00cc66;stroke-width:1;stroke-linecap:butt;stroke-linejoin:miter;stroke-miterlimit:10;stroke-dasharray:none;stroke-opacity:1"
           d="m 354.83,539.76 35.69,-26.15 6.92,-34.58 -8.31,-26.28 -12.46,-20.74 -1.38,-29.05 -27.69,5.53 -22.15,23.52 -23.54,56.71 -37.38,6.91 -8.21,23.6 10.92,4.3 c 24.81,9.07 51.32,14.61 78.93,16.01 z" /></g></g><path
       id="path62"
       style="fill:#00cc66;fill-opacity:1;fill-rule:evenodd;stroke:none"
       d="m 220.71,501.12 11.24,-12.57 -0.89,-34.68 27.55,-11.56 23.1,-9.78 -7.11,-19.57 -25.77,5.34 -27.55,8.89 v -21.34 l -28.44,-22.23 16.89,-25.79 27.55,-13.34 0.89,27.57 15.99,8.89 h 24 l 8,-4.45 h 20.44 l -30.22,-44.46 -18.66,-24.9 -15.11,-5.33 -18.66,-28.46 7.11,-32.01 -21.33,-10.68 0.89,34.69 h -26.66 l -24,-24.01 11.55,-35.57 18.67,-18.68 33.77,3.56 11.55,-24.9 47.1,-8.89 34.66,-20.46 34.66,-11.56 16,-24.897 L 357.26,75.933 340.37,64.372 327.04,29.691 323.63,2.4 318.81,3.0128 C 300.94,5.7452 283.64,10.232 267.1,16.291 l -1.58,0.624 -18.47,46.568 -47.1,16.896 -8,42.681 24,18.68 4.44,19.56 -40.88,8.01 -28.44,20.45 -34.66,21.34 -13.33,33.79 -13.08,26.18 0.324,12.84 C 94.756,371.39 140.77,447.88 208.99,494 Z" /><path
       id="path64"
       style="fill:none;stroke:#00cc66;stroke-width:1;stroke-linecap:butt;stroke-linejoin:miter;stroke-miterlimit:10;stroke-dasharray:none;stroke-opacity:1"
       d="m 220.71,501.12 11.24,-12.57 -0.89,-34.68 27.55,-11.56 23.1,-9.78 -7.11,-19.57 -25.77,5.34 -27.55,8.89 v -21.34 l -28.44,-22.23 16.89,-25.79 27.55,-13.34 0.89,27.57 15.99,8.89 h 24 l 8,-4.45 h 20.44 l -30.22,-44.46 -18.66,-24.9 -15.11,-5.33 -18.66,-28.46 7.11,-32.01 -21.33,-10.68 0.89,34.69 h -26.66 l -24,-24.01 11.55,-35.57 18.67,-18.68 33.77,3.56 11.55,-24.9 47.1,-8.89 34.66,-20.46 34.66,-11.56 16,-24.897 L 357.26,75.933 340.37,64.372 327.04,29.691 323.63,2.4 318.81,3.0128 C 300.94,5.7452 283.64,10.232 267.1,16.291 l -1.58,0.624 -18.47,46.568 -47.1,16.896 -8,42.681 24,18.68 4.44,19.56 -40.88,8.01 -28.44,20.45 -34.66,21.34 -13.33,33.79 -13.08,26.18 0.324,12.84 C 94.756,371.39 140.77,447.88 208.99,494 Z" /><path
       id="path66"
       style="fill:#00cc66;fill-opacity:1;fill-rule:evenodd;stroke:none"
       d="m 527.98,481.2 3.78,-2.83 c 56.68,-46.76 93.94,-116.21 97.91,-194.43 l 0.33,-13.16 -2.75,-0.73 -36,22.15 31.85,-44.31 -12.47,-27.69 v -50.23 l -1.83,-5.01 C 591.72,124.59 565.1,89.23 531.76,61.72 l -18.67,-13.96 -10.46,10.459 -8.3,22.152 11.07,23.539 12.46,40.15 -2.76,40.15 -19.39,23.53 -36,-2.76 -31.85,12.46 -16.61,19.38 -2.77,31.84 16.62,30.46 19.38,16.61 16.62,6.93 37.38,-9.69 31.85,6.92 24.92,4.15 19.38,-4.15 -1.38,15.23 -13.85,-4.16 -15.23,9.69 5.54,11.08 11.08,-4.15 12.46,6.92 -5.54,12.46 -18,-2.77 -6.92,-12.46 -20.77,13.85 v -13.85 l 5.54,-9.69 -12.46,-9.69 -2.77,12.46 -4.16,15.23 -16.61,2.77 -4.16,-22.16 -12.46,-6.92 -24.92,-2.77 -4.16,34.62 16.62,1.38 18,13.85 4.15,22.15 h 8.31 l 22.16,-2.77 15.23,-8.31 15.23,19.38 v 29.08 l -12.46,11.07 -4.16,-12.46 1.39,-13.84 -11.08,-8.31 -12.46,2.77 -12.46,12.46 8.3,12.46 11.08,23.54 z" /><path
       id="path68"
       style="fill:none;stroke:#00cc66;stroke-width:1;stroke-linecap:butt;stroke-linejoin:miter;stroke-miterlimit:10;stroke-dasharray:none;stroke-opacity:1"
       d="m 527.98,481.2 3.78,-2.83 c 56.68,-46.76 93.94,-116.21 97.91,-194.43 l 0.33,-13.16 -2.75,-0.73 -36,22.15 31.85,-44.31 -12.47,-27.69 v -50.23 l -1.83,-5.01 C 591.72,124.59 565.1,89.23 531.76,61.72 l -18.67,-13.96 -10.46,10.459 -8.3,22.152 11.07,23.539 12.46,40.15 -2.76,40.15 -19.39,23.53 -36,-2.76 -31.85,12.46 -16.61,19.38 -2.77,31.84 16.62,30.46 19.38,16.61 16.62,6.93 37.38,-9.69 31.85,6.92 24.92,4.15 19.38,-4.15 -1.38,15.23 -13.85,-4.16 -15.23,9.69 5.54,11.08 11.08,-4.15 12.46,6.92 -5.54,12.46 -18,-2.77 -6.92,-12.46 -20.77,13.85 v -13.85 l 5.54,-9.69 -12.46,-9.69 -2.77,12.46 -4.16,15.23 -16.61,2.77 -4.16,-22.16 -12.46,-6.92 -24.92,-2.77 -4.16,34.62 16.62,1.38 18,13.85 4.15,22.15 h 8.31 l 22.16,-2.77 15.23,-8.31 15.23,19.38 v 29.08 l -12.46,11.07 -4.16,-12.46 1.39,-13.84 -11.08,-8.31 -12.46,2.77 -12.46,12.46 8.3,12.46 11.08,23.54 z" /><path
       id="path70"
       style="fill:#00cc66;fill-opacity:1;fill-rule:evenodd;stroke:none"
       d="m 473.62,436.08 -15.22,-2.77 8.3,-19.38 v -13.85 l 15.22,9.69 -2.77,6.93 z" /><path
       id="path72"
       style="fill:none;stroke:#00cc66;stroke-width:1;stroke-linecap:butt;stroke-linejoin:miter;stroke-miterlimit:10;stroke-dasharray:none;stroke-opacity:1"
       d="m 473.62,436.08 -15.22,-2.77 8.3,-19.38 v -13.85 l 15.22,9.69 -2.77,6.93 z" /><path
       id="path74"
       style="fill:#00cc66;fill-opacity:1;fill-rule:evenodd;stroke:none"
       d="m 448,420.26 v 0 h 6.26 l 4.17,0.7 0.69,-12.51 -9.73,-7.65 -3.47,7.65 z" /><path
       id="path76"
       style="fill:none;stroke:#00cc66;stroke-width:1;stroke-linecap:butt;stroke-linejoin:miter;stroke-miterlimit:10;stroke-dasharray:none;stroke-opacity:1"
       d="m 448,420.26 v 0 h 6.26 l 4.17,0.7 0.69,-12.51 -9.73,-7.65 -3.47,7.65 z" /></g></svg>
